<?xml version="1.0" standalone="no"?>
<!DOCTYPE svg PUBLIC "-//W3C//DTD SVG 20010904//EN"
 "http://www.w3.org/TR/2001/REC-SVG-20010904/DTD/svg10.dtd">
<svg version="1.0" xmlns="http://www.w3.org/2000/svg"
 width="224.000000pt" height="224.000000pt" viewBox="0 0 224.000000 224.000000"
 preserveAspectRatio="xMidYMid meet">
<metadata>
Created by potrace 1.14, written by Peter Selinger 2001-2017
</metadata>
<g transform="translate(0.000000,224.000000) scale(0.100000,-0.100000)"
fill="#000000" stroke="none">
<path d="M599 2144 c-14 -17 -4 -39 117 -264 31 -58 76 -143 100 -189 25 -47
49 -90 54 -96 12 -14 465 -18 490 -5 9 5 33 41 54 82 21 40 51 96 66 123 144
263 174 326 163 344 -9 14 -71 16 -520 19 -455 2 -512 0 -524 -14z"/>
<path d="M478 2068 c-13 -11 -198 -340 -198 -353 0 -2 -15 -30 -34 -62 -18
-32 -53 -96 -78 -143 -25 -47 -54 -101 -65 -120 -85 -152 -100 -186 -92 -207
8 -22 14 -23 106 -24 306 -1 478 3 489 12 7 6 21 27 32 47 11 20 28 53 39 72
11 19 45 82 76 140 l55 105 -27 55 c-34 68 -148 285 -172 325 -10 17 -29 54
-44 83 -26 52 -50 82 -64 82 -4 0 -14 -6 -23 -12z"/>
<path d="M1710 2057 c-8 -12 -26 -44 -40 -72 -15 -27 -44 -81 -65 -120 -20
-38 -60 -113 -88 -165 -28 -52 -56 -106 -64 -120 -24 -45 -21 -51 119 -305 22
-38 42 -78 45 -87 9 -30 13 -30 420 -29 173 1 183 2 193 21 12 22 12 23 -175
365 -48 88 -108 198 -133 245 -25 47 -60 111 -78 143 -19 32 -34 60 -34 63 0
2 -11 21 -24 42 -27 43 -56 50 -76 19z"/>
<path d="M161 1080 c-180 -6 -183 -9 -112 -126 26 -44 50 -86 54 -94 4 -8 25
-44 47 -79 22 -34 40 -65 40 -67 0 -2 18 -33 40 -69 22 -36 40 -68 40 -71 0
-3 16 -30 35 -60 19 -30 35 -57 35 -61 0 -3 6 -14 14 -22 8 -9 26 -38 41 -66
14 -27 37 -68 51 -90 13 -22 32 -54 41 -72 29 -57 68 -51 98 14 10 21 32 70
50 108 18 39 52 111 75 160 23 50 55 118 71 153 l30 62 -24 48 c-13 26 -38 72
-54 102 -17 30 -48 89 -69 130 -21 41 -44 80 -50 87 -14 14 -232 21 -453 13z"/>
<path d="M1753 1082 c-130 -3 -116 7 -198 -147 -26 -49 -63 -118 -81 -152 -19
-33 -34 -69 -34 -78 0 -15 57 -129 155 -310 18 -33 52 -96 75 -140 48 -93 43
-86 67 -90 18 -3 53 21 53 36 0 5 24 53 54 106 29 54 69 127 88 163 20 36 48
88 63 115 15 28 42 77 60 110 18 33 46 85 62 115 17 30 47 87 68 125 20 39 40
75 43 80 12 19 11 43 -1 53 -14 12 -276 19 -474 14z"/>
<path d="M883 651 c-12 -8 -34 -48 -79 -146 -50 -110 -121 -260 -150 -319 -27
-57 -30 -79 -10 -95 9 -8 149 -10 501 -9 564 3 531 -3 478 95 -17 32 -50 94
-73 138 -23 44 -63 118 -88 165 -25 47 -54 102 -64 122 -10 20 -24 40 -30 45
-15 9 -471 14 -485 4z"/>
</g>
</svg>
